<svg xmlns="http://www.w3.org/2000/svg" width="25" height="25" viewBox="0 0 25 25" fill="none"><path d="M9.375 3.125H2.34375C1.05133 3.125 0 4.17633 0 5.46875V12.5C0 13.7924 1.05133 14.8438 2.34375 14.8438H5.49736L4.31137 20.9446C4.26673 21.1739 4.32701 21.4108 4.4754 21.5908C4.62379 21.7709 4.84466 21.875 5.07812 21.875H7.60918C8.28858 21.875 8.89245 21.4306 9.09805 20.787L11.3724 15.3923C11.3853 15.3614 11.3964 15.3297 11.4052 15.2977C11.6135 14.5493 11.7188 13.7753 11.7188 12.9974V5.46875C11.7188 4.17633 10.6674 3.125 9.375 3.125Z" fill="#AC9A5F"/><path d="M22.6562 3.125H15.625C14.3326 3.125 13.2812 4.17633 13.2812 5.46875V12.5C13.2812 13.7924 14.3326 14.8438 15.625 14.8438H18.779L17.5926 20.9446C17.5476 21.1739 17.6079 21.4108 17.7567 21.5908C17.9047 21.7709 18.1259 21.875 18.3594 21.875H20.8908C21.5706 21.875 22.1741 21.4306 22.3793 20.7867L24.6536 15.3923C24.6666 15.3614 24.6773 15.3297 24.6864 15.2977C24.8947 14.5485 25 13.7745 25 12.9974V5.46875C25 4.17633 23.9487 3.125 22.6562 3.125Z" fill="#AC9A5F"/></svg>