<svg xmlns="http://www.w3.org/2000/svg" width="39" height="39" viewBox="0 0 39 39" fill="none"><path d="M7.2605 8.20339V17.8949C7.2605 20.7159 7.852 23.5109 9.087 26.0459C10.777 29.5039 13.897 33.6119 19.5 35.1004C25.103 33.6119 28.223 29.5039 29.9065 26.0459C31.1415 23.5109 31.733 20.7159 31.733 17.8949V8.20339C31.733 8.20339 24.1995 8.54139 19.4935 3.90039C14.794 8.54139 7.2605 8.20339 7.2605 8.20339Z" fill="white"/><path d="M19.5001 35.7502C19.4416 35.7502 19.3896 35.7437 19.3311 35.7307C13.4031 34.1512 10.1726 29.7507 8.5086 26.3317C7.2671 23.7902 6.6106 20.8717 6.6106 17.8947V8.20317C6.6106 8.02767 6.6821 7.85867 6.8121 7.73517C6.9421 7.61167 7.1176 7.54667 7.2931 7.55317C7.3646 7.55967 14.6056 7.81317 19.0451 3.43867C19.2986 3.19167 19.7016 3.19167 19.9551 3.43867C24.3946 7.81967 31.6356 7.55967 31.7071 7.55317C31.8761 7.54017 32.0581 7.61167 32.1881 7.73517C32.3181 7.85867 32.3896 8.02767 32.3896 8.20317V17.8947C32.3896 20.8717 31.7331 23.7902 30.4916 26.3317C28.8276 29.7442 25.5971 34.1512 19.6691 35.7307C19.6106 35.7437 19.5586 35.7502 19.5001 35.7502ZM7.9106 8.85967V17.8947C7.9106 20.6767 8.5216 23.4002 9.6721 25.7597C11.2061 28.8992 14.1506 32.9357 19.4936 34.4242C24.8431 32.9357 27.7876 28.8992 29.3151 25.7597C30.4721 23.3937 31.0766 20.6767 31.0766 17.8947V8.85967C29.1396 8.82717 23.5366 8.41117 19.4871 4.79067C15.4506 8.40467 9.8476 8.82717 7.9106 8.85967Z" fill="white" fill-opacity="0.64"/><path d="M19.5 33.7484C14.495 32.2859 11.713 28.4574 10.257 25.4739C9.14555 23.1989 8.56055 20.5729 8.56055 17.8884V9.48393C10.9525 9.36043 15.756 8.71693 19.5 5.64893C23.244 8.71693 28.0475 9.36693 30.4395 9.48393V17.8949C30.4395 20.5794 29.8545 23.1989 28.743 25.4804C27.287 28.4639 24.505 32.2859 19.5 33.7484Z" fill="#AC9A5F"/><path d="M19.5 34.3984C19.4415 34.3984 19.3765 34.3919 19.318 34.3724C14.0725 32.8384 11.18 28.8409 9.67849 25.7599C8.52799 23.3939 7.91699 20.6769 7.91699 17.8949V9.48386C7.91699 9.13936 8.18999 8.85336 8.53449 8.83386C10.946 8.71036 15.5285 8.07336 19.0905 5.14186C19.331 4.94686 19.6755 4.94686 19.916 5.14186C23.4845 8.06686 28.0605 8.71036 30.472 8.83386C30.8165 8.85336 31.0895 9.13936 31.0895 9.48386V17.8949C31.0895 20.6769 30.4785 23.4004 29.328 25.7599C27.8265 28.8409 24.9275 32.8384 19.6885 34.3724C19.6235 34.3919 19.5585 34.3984 19.5 34.3984ZM9.21049 10.0949V17.8949C9.21049 20.4819 9.77599 23.0039 10.842 25.1944C12.2135 28.0024 14.8265 31.6359 19.5 33.0724C24.1735 31.6294 26.7865 28.0024 28.158 25.1944C29.224 23.0039 29.7895 20.4819 29.7895 17.8949V10.0949C27.209 9.89336 22.9905 9.13936 19.5 6.47436C16.0095 9.13936 11.791 9.89336 9.21049 10.0949Z" fill="white"/><path d="M15.4635 25.6816C15.3335 25.6816 15.197 25.6426 15.08 25.5581C14.7875 25.3436 14.729 24.9406 14.937 24.6481L23.0165 13.5851C23.231 13.2926 23.634 13.2341 23.9265 13.4421C24.219 13.6566 24.2775 14.0596 24.0695 14.3521L15.9835 25.4151C15.86 25.5906 15.6585 25.6816 15.4635 25.6816Z" fill="black"/><path d="M15.6326 18.9539C14.1961 18.9539 13.0261 17.5369 13.0261 15.8014C13.0261 14.0659 14.1961 12.6489 15.6326 12.6489C17.0691 12.6489 18.2391 14.0659 18.2391 15.8014C18.2391 17.5369 17.0691 18.9539 15.6326 18.9539ZM15.6326 13.9489C14.9241 13.9489 14.3261 14.8004 14.3261 15.8014C14.3261 16.8024 14.9241 17.6539 15.6326 17.6539C16.3411 17.6539 16.9391 16.8024 16.9391 15.8014C16.9391 14.8004 16.3411 13.9489 15.6326 13.9489Z" fill="black"/><path d="M23.3675 26.3514C21.931 26.3514 20.761 24.9344 20.761 23.1989C20.761 21.4634 21.931 20.0464 23.3675 20.0464C24.804 20.0464 25.974 21.4634 25.974 23.1989C25.974 24.9344 24.8105 26.3514 23.3675 26.3514ZM23.3675 21.3464C22.659 21.3464 22.061 22.1979 22.061 23.1989C22.061 24.1999 22.659 25.0514 23.3675 25.0514C24.076 25.0514 24.674 24.1999 24.674 23.1989C24.674 22.1979 24.076 21.3464 23.3675 21.3464Z" fill="black"/></svg>